<svg width="16" height="12" viewBox="0 0 16 12" fill="none" xmlns="http://www.w3.org/2000/svg">
<path fill-rule="evenodd" clip-rule="evenodd" d="M0 0H16V12H0V0Z" fill="#E31D1C"/>
<path fill-rule="evenodd" clip-rule="evenodd" d="M0 1V2H16V1H0ZM0 3V4H16V3H0ZM0 6V5H16V6H0ZM0 7V8H16V7H0ZM0 10V9H16V10H0ZM0 12V11H16V12H0Z" fill="#F7FCFF"/>
<rect width="9" height="7" fill="#2E42A5"/>
<path fill-rule="evenodd" clip-rule="evenodd" d="M1.03981 2.1757L1.56973 1.80657L1.98079 2.1025H1.74805L2.21872 2.5188L2.05974 3.1025H1.81076L1.56899 2.56641L1.3628 3.1025H0.748047L1.21872 3.5188L1.03981 4.1757L1.56973 3.80657L1.98079 4.1025H1.74805L2.21872 4.5188L2.05974 5.1025H1.81076L1.56899 4.56641L1.3628 5.1025H0.748047L1.21872 5.5188L1.03981 6.1757L1.56973 5.80657L2.08246 6.1757L1.92305 5.5188L2.33482 5.1025H2.14489L2.56973 4.80657L2.98079 5.1025H2.74805L3.21872 5.5188L3.03981 6.1757L3.56973 5.80657L4.08246 6.1757L3.92305 5.5188L4.33482 5.1025H4.14489L4.56973 4.80657L4.98079 5.1025H4.74805L5.21872 5.5188L5.03981 6.1757L5.56973 5.80657L6.08246 6.1757L5.92305 5.5188L6.33482 5.1025H6.14489L6.56973 4.80657L6.98079 5.1025H6.74805L7.21872 5.5188L7.03981 6.1757L7.56973 5.80657L8.08246 6.1757L7.92305 5.5188L8.33482 5.1025H7.81076L7.56899 4.56641L7.3628 5.1025H7.0647L6.92305 4.5188L7.33482 4.1025H7.14489L7.56973 3.80657L8.08246 4.1757L7.92305 3.5188L8.33482 3.1025H7.81076L7.56899 2.56641L7.3628 3.1025H7.0647L6.92305 2.5188L7.33482 2.1025H7.14489L7.56973 1.80657L8.08246 2.1757L7.92305 1.5188L8.33482 1.1025H7.81076L7.56899 0.566406L7.3628 1.1025H6.74805L7.21872 1.5188L7.05974 2.1025H6.81076L6.56899 1.56641L6.3628 2.1025H6.0647L5.92305 1.5188L6.33482 1.1025H5.81076L5.56899 0.566406L5.3628 1.1025H4.74805L5.21872 1.5188L5.05974 2.1025H4.81076L4.56899 1.56641L4.3628 2.1025H4.0647L3.92305 1.5188L4.33482 1.1025H3.81076L3.56899 0.566406L3.3628 1.1025H2.74805L3.21872 1.5188L3.05974 2.1025H2.81076L2.56899 1.56641L2.3628 2.1025H2.0647L1.92305 1.5188L2.33482 1.1025H1.81076L1.56899 0.566406L1.3628 1.1025H0.748047L1.21872 1.5188L1.03981 2.1757ZM7.05974 4.1025L7.21872 3.5188L6.74805 3.1025H6.98079L6.56973 2.80657L6.14489 3.1025H6.33482L5.92305 3.5188L6.0647 4.1025H6.3628L6.56899 3.56641L6.81076 4.1025H7.05974ZM5.98079 4.1025L5.56973 3.80657L5.14489 4.1025H5.33482L4.92305 4.5188L5.0647 5.1025H5.3628L5.56899 4.56641L5.81076 5.1025H6.05974L6.21872 4.5188L5.74805 4.1025H5.98079ZM4.21872 4.5188L4.05974 5.1025H3.81076L3.56899 4.56641L3.3628 5.1025H3.0647L2.92305 4.5188L3.33482 4.1025H3.14489L3.56973 3.80657L3.98079 4.1025H3.74805L4.21872 4.5188ZM4.3628 4.1025H4.0647L3.92305 3.5188L4.33482 3.1025H4.14489L4.56973 2.80657L4.98079 3.1025H4.74805L5.21872 3.5188L5.05974 4.1025H4.81076L4.56899 3.56641L4.3628 4.1025ZM3.05974 4.1025L3.21872 3.5188L2.74805 3.1025H2.98079L2.56973 2.80657L2.14489 3.1025H2.33482L1.92305 3.5188L2.0647 4.1025H2.3628L2.56899 3.56641L2.81076 4.1025H3.05974ZM6.21872 2.5188L6.05974 3.1025H5.81076L5.56899 2.56641L5.3628 3.1025H5.0647L4.92305 2.5188L5.33482 2.1025H5.14489L5.56973 1.80657L5.98079 2.1025H5.74805L6.21872 2.5188ZM3.98079 2.1025L3.56973 1.80657L3.14489 2.1025H3.33482L2.92305 2.5188L3.0647 3.1025H3.3628L3.56899 2.56641L3.81076 3.1025H4.05974L4.21872 2.5188L3.74805 2.1025H3.98079Z" fill="#F7FCFF"/>
</svg>
