<svg width="32" height="32" viewBox="0 0 32 32" fill="none" xmlns="http://www.w3.org/2000/svg">
<path d="M15.999 29.3334C19.4657 29.3334 22.6124 28.0134 24.9857 25.8401C24.8524 24.5867 24.0524 23.3601 22.6257 22.4001C18.999 19.9734 13.0257 19.9734 9.37237 22.4001C7.9457 23.3601 7.1457 24.5867 7.01237 25.8401C9.3857 28.0134 12.5324 29.3334 15.999 29.3334ZM15.999 29.3334C23.3628 29.3334 29.3327 23.3631 29.3327 15.9993C29.3327 8.63555 23.3631 2.66602 15.9993 2.66602C8.63555 2.66602 2.66602 8.63555 2.66602 15.9993C2.66602 23.3631 8.63524 29.3334 15.999 29.3334ZM16.159 17.04C16.0657 17.0266 15.9457 17.0266 15.839 17.04C13.4923 16.96 11.6257 15.04 11.6257 12.68C11.6257 10.2666 13.5723 8.30664 15.999 8.30664C18.4123 8.30664 20.3723 10.2666 20.3723 12.68C20.359 15.04 18.5057 16.96 16.159 17.04Z" stroke="#ACACAC" stroke-width="2" stroke-linecap="round" stroke-linejoin="round"/>
</svg>
