<svg width="128" height="128" viewBox="0 0 128 128" fill="none" xmlns="http://www.w3.org/2000/svg">
<path d="M105.342 30.622L66.1428 69.4513V61.3034L94.0864 33.6235C94.9236 32.7943 94.9236 31.4511 94.0864 30.6219C93.2495 29.7928 91.8934 29.7928 91.0564 30.6219L66.1428 55.3004V47.1525L79.8008 33.6235C80.6378 32.7943 80.6378 31.4511 79.8008 30.6219C78.9638 29.7927 77.6077 29.7928 76.7706 30.6219L66.1428 41.1495V32.1228C66.1428 30.9509 65.1837 30.0001 64 30.0001C62.8163 30.0001 61.8572 30.9508 61.8572 32.1228V41.1495L51.2294 30.622C50.3924 29.7929 49.0363 29.7929 48.1992 30.622C47.3621 31.4511 47.3622 32.7944 48.1992 33.6236L61.8572 47.1526V55.3005L36.9436 30.622C36.1066 29.7929 34.7505 29.7929 33.9136 30.622C33.0764 31.4511 33.0764 32.7944 33.9136 33.6236L61.8572 61.3035V69.4514L22.658 30.622C21.8208 29.7929 20.4649 29.7929 19.6278 30.622C18.7907 31.4511 18.7908 32.7944 19.6278 33.6236L61.8572 75.4544V102.877C61.8572 104.049 62.8163 105 64 105C65.1837 105 66.1428 104.049 66.1428 102.877V75.4544L108.372 33.6236C109.209 32.7944 109.209 31.4512 108.372 30.622C107.535 29.7928 106.179 29.7929 105.342 30.622Z" fill="white"/>
</svg>
