<svg width="128" height="128" viewBox="0 0 128 128" fill="none" xmlns="http://www.w3.org/2000/svg">
<circle cx="64" cy="64" r="64" fill="#007FE7"/>
<path d="M100.748 32.5307L65.9047 65.6651V58.7122L90.7435 35.092C91.4877 34.3844 91.4877 33.2382 90.7435 32.5307C89.9996 31.8232 88.7942 31.8232 88.0502 32.5307L65.9047 53.5897V46.6368L78.0452 35.092C78.7892 34.3844 78.7892 33.2382 78.0452 32.5307C77.3012 31.8231 76.0958 31.8232 75.3517 32.5307L65.9047 41.5142V33.8114C65.9047 32.8115 65.0522 32.0001 64 32.0001C62.9478 32.0001 62.0953 32.8114 62.0953 33.8114V41.5142L52.6484 32.5307C51.9044 31.8232 50.6989 31.8232 49.9548 32.5307C49.2108 33.2382 49.2108 34.3845 49.9548 35.0921L62.0953 46.6369V53.5898L39.9499 32.5307C39.2059 31.8232 38.0004 31.8232 37.2565 32.5307C36.5124 33.2382 36.5124 34.3845 37.2565 35.0921L62.0953 58.7123V65.6652L27.2515 32.5307C26.5074 31.8232 25.3021 31.8232 24.558 32.5307C23.8139 33.2382 23.814 34.3845 24.558 35.0921L62.0953 70.7878V94.1887C62.0953 95.1887 62.9478 96 64 96C65.0522 96 65.9047 95.1887 65.9047 94.1887V70.7878L103.442 35.0921C104.186 34.3845 104.186 33.2383 103.442 32.5307C102.698 31.8232 101.493 31.8232 100.748 32.5307Z" fill="white"/>
</svg>
