<svg width="128" height="128" viewBox="0 0 128 128" fill="none" xmlns="http://www.w3.org/2000/svg">
<circle cx="64" cy="64" r="64" fill="#007FE7"/>
<path d="M91.0434 96.8521C89.7521 96.3104 88.6305 95.4771 87.702 94.3685C90.4419 92.4846 92 89.7936 92 86.9026C92 81.443 86.3917 77 79.5 77C72.6083 77 67 81.4419 67 86.9026C67 92.3622 72.6083 96.8052 79.5 96.8052C80.7913 96.8052 82.0826 96.6425 83.3403 96.3192C85.8805 97.7903 88.6337 98 90.0009 98C90.5075 98 90.8234 97.9705 90.8692 97.9672C91.1393 97.941 91.3569 97.739 91.3982 97.4758C91.4395 97.2126 91.2944 96.9559 91.0444 96.8521L91.0434 96.8521Z" fill="white"/>
<path d="M36.9566 96.8521C38.2479 96.3104 39.3695 95.4771 40.298 94.3685C37.5581 92.4846 36 89.7936 36 86.9026C36 81.443 41.6083 77 48.5 77C55.3917 77 61 81.4419 61 86.9026C61 92.3622 55.3917 96.8052 48.5 96.8052C47.2087 96.8052 45.9174 96.6425 44.6597 96.3192C42.1195 97.7903 39.3663 98 37.9991 98C37.4925 98 37.1766 97.9705 37.1308 97.9672C36.8607 97.941 36.6431 97.739 36.6018 97.4758C36.5605 97.2126 36.7056 96.9559 36.9556 96.8521L36.9566 96.8521Z" fill="white"/>
<path d="M42.8814 55.5791C44.5515 56.8527 46.5342 57.5581 48.6071 58.0624C52.0203 58.8891 55.4961 59.2466 59.017 59.4093C63.6316 59.6232 68.2251 59.5721 72.8224 59.1412C75.9232 58.8476 78.9753 58.3879 81.8812 57.3186C83.4992 56.7218 85.0617 55.9877 86.1728 54.7045C88.0409 52.5469 88.1833 50.1051 87.3812 47.5707C86.5548 44.963 85.6659 42.3744 84.7249 39.7922C83.7388 37.0887 82.4749 34.481 80.5478 32.2084C79.2318 30.6572 77.6762 29.3645 75.454 29.0038C75.2943 28.9783 71.2144 29.0868 70.697 29.1825C69.5164 29.4123 68.3602 29.7315 67.1762 29.9677C64.6067 30.4752 62.065 30.3284 59.5302 29.6805C58.4816 29.4123 57.3878 29.2974 56.3288 29.0836C56.0892 29.0357 52.6656 29.0006 52.5857 29.0102C51.3045 29.141 50.2662 29.722 49.3045 30.4561C47.2524 32.0328 45.8739 34.0692 44.7697 36.2652C42.787 40.2296 41.3287 44.3726 40.3148 48.6208C39.6759 51.3019 40.4745 53.7533 42.8669 55.5822L42.8814 55.5791Z" fill="white"/>
<path d="M103.965 61.3153C103.753 59.9013 102.906 58.7906 101.708 57.9064C98.6318 55.6338 94.9511 54.6124 91.2361 53.658C90.8437 53.5591 90.6319 53.7155 90.5069 54.0762C90.1597 55.0976 89.5277 55.9785 88.7639 56.7892C86.7916 58.8895 84.2117 60.0577 81.4027 60.8748C77.4721 62.0175 73.4131 62.3622 69.3404 62.5665C66.5765 62.7069 63.7952 62.6973 61.0209 62.6239C58.4688 62.5601 55.9098 62.3782 53.368 62.1324C50.6041 61.8707 47.8923 61.3408 45.2882 60.4248C41.7048 59.1672 38.7985 57.2393 37.3158 53.84C37.2707 53.7347 36.9617 53.6198 36.8262 53.6612C34.729 54.2837 32.6213 54.871 30.5692 55.5987C28.649 56.2754 26.8608 57.2234 25.4581 58.6469C23.5484 60.5844 23.4858 63.0421 25.4407 64.9381C26.3018 65.7711 27.3261 66.5085 28.399 67.1021C31.6178 68.8768 35.1977 69.7992 38.816 70.5429C43.4306 71.4909 48.097 72.1612 52.8268 72.3973C56.5525 72.5857 60.2748 72.7963 64.0002 73.0006V72.8059C65.403 72.8059 66.8197 72.8633 68.2225 72.7963C71.476 72.6399 74.7364 72.5186 77.9825 72.2154C80.7916 71.9537 83.5902 71.5292 86.375 71.0535C90.118 70.4152 93.816 69.5981 97.3164 68.1617C99.1463 67.4084 100.889 66.537 102.32 65.2188C103.493 64.1399 104.188 62.8664 103.955 61.3055L103.965 61.3153Z" fill="white"/>
</svg>
